# xmcd
# 
# Track frame offsets:
#     150
#     16112
#     34660
#     55719
#     70769
#     91510
#     107160
#     124738
#     140459
#     154437
#     169985
#     188164
#     203100
#     219126
#     246529
# 
# Disc length: 3324
# 
# Revision: 1
# Processed by: cddbd v1.5.2PL0 Copyright (c) Steve Scherf et al.
# Submitted via: BonkEnc v1.0.6
# 
DISCID=ca0cfa0f
DTITLE=Os Serranos - Os Serranos
DYEAR=0
DGENRE=Country
TTITLE0=Eu sou do sul
TTITLE1=Nossa vaneira
TTITLE2=Vanerão sambado
TTITLE3=Peão não chora
TTITLE4=A primeira vez
TTITLE5=Lembranças
TTITLE6=Ala pucha
TTITLE7=Morena rosa
TTITLE8=Bailinho na capela
TTITLE9=Morenaça
TTITLE10=Castelhana
TTITLE11=Pé na estrada
TTITLE12=Madrugada
TTITLE13=Cambichos
TTITLE14=Faixa 15
EXTD=
EXTT0=
EXTT1=
EXTT2=
EXTT3=
EXTT4=
EXTT5=
EXTT6=
EXTT7=
EXTT8=
EXTT9=
EXTT10=
EXTT11=
EXTT12=
EXTT13=
EXTT14=
PLAYORDER=
